<?xml version="1.0" encoding="utf-8"?>
<!-- Generator: Adobe Illustrator 25.2.1, SVG Export Plug-In . SVG Version: 6.00 Build 0)  -->
<svg version="1.1" id="Capa_1" xmlns="http://www.w3.org/2000/svg" xmlns:xlink="http://www.w3.org/1999/xlink" x="0px" y="0px"
	 viewBox="0 0 560.1 210.7" style="enable-background:new 0 0 560.1 210.7;" xml:space="preserve">
<style type="text/css">
	.st0{opacity:0.3;}
	.st1{fill:#252525;}
	.st2{fill:#E0E0E0;}
	.st3{fill:#F5F5F5;}
	.st4{fill:#C2DBAA;}
	.st5{fill:#455A64;}
	.st6{fill:#92E3A9;}
	.st7{opacity:0.3;fill:#FFFFFF;enable-background:new    ;}
	.st8{opacity:0.7;}
	.st9{opacity:0.7;fill:#FFFFFF;enable-background:new    ;}
	.st10{opacity:0.3;fill:#252525;enable-background:new    ;}
</style>
<g class="st0">
	<path class="st1" d="M413.9,152.2c-1.5-22.1,15.3-41.2,37.4-42.7s41.2,15.3,42.7,37.4s-15.3,41.2-37.4,42.7
		C434.5,191.1,415.4,174.3,413.9,152.2z"/>
	<path class="st2" d="M454,122.9c5.3,0,10.5,1.6,14.8,4.5c4.4,2.9,7.8,7.1,9.8,12s2.5,10.3,1.5,15.4c-1,5.2-3.6,9.9-7.3,13.7
		c-3.7,3.7-8.5,6.3-13.7,7.3s-10.6,0.5-15.4-1.5c-4.9-2-9.1-5.5-12-9.9s-4.5-9.6-4.5-14.9c0-3.5,0.7-7,2-10.2s3.3-6.2,5.8-8.7
		s5.4-4.4,8.7-5.8S450.5,122.9,454,122.9z M475.3,149.6c0-4.2-1.2-8.4-3.6-11.9c-2.3-3.5-5.7-6.3-9.6-7.9c-3.9-1.6-8.2-2.1-12.4-1.2
		c-4.2,0.8-8,2.8-11,5.8s-5,6.8-5.9,10.9s-0.4,8.5,1.2,12.4s4.3,7.3,7.9,9.6c3.5,2.4,7.7,3.6,11.9,3.6c5.7,0,11.1-2.2,15.1-6.2
		C473.1,160.8,475.3,155.3,475.3,149.6z"/>
	<path class="st3" d="M454,128.2c4.2,0,8.4,1.3,11.9,3.6c3.5,2.4,6.3,5.7,7.9,9.6c1.6,3.9,2,8.2,1.2,12.4s-2.9,8-5.9,11
		s-6.8,5-11,5.9c-4.2,0.8-8.5,0.4-12.4-1.2c-3.9-1.6-7.3-4.4-9.6-7.9c-2.3-3.5-3.6-7.7-3.6-11.9c0-5.7,2.3-11.1,6.3-15.1
		S448.3,128.2,454,128.2z"/>
	<path class="st1" d="M460.3,149.7c0,1.3-0.4,2.5-1.1,3.5s-1.7,1.8-2.8,2.3c-1.2,0.5-2.4,0.6-3.7,0.4c-1.2-0.2-2.4-0.9-3.2-1.7
		c-0.9-0.9-1.5-2-1.7-3.2s-0.1-2.5,0.4-3.7s1.3-2.1,2.3-2.8s2.3-1.1,3.5-1.1c0.8,0,1.7,0.2,2.4,0.5c0.8,0.3,1.5,0.8,2.1,1.4
		c0.6,0.6,1.1,1.3,1.4,2.1C460.1,148,460.3,148.9,460.3,149.7z"/>
</g>
<g class="st0">
	<path class="st1" d="M80.3,178.1c-15.6-15.7-15.5-41.1,0.2-56.7s41.1-15.5,56.7,0.2s15.5,41.1-0.2,56.7S95.9,193.8,80.3,178.1z"/>
	<path class="st2" d="M108.8,123.1c5.3,0,10.5,1.6,14.8,4.5c4.4,2.9,7.8,7.1,9.8,12c2,4.9,2.5,10.3,1.5,15.4
		c-1,5.2-3.6,9.9-7.3,13.7c-3.7,3.7-8.5,6.3-13.7,7.3s-10.6,0.5-15.4-1.5c-4.9-2-9.1-5.5-12-9.9S82,155,82,149.7
		c0-7.1,2.8-13.9,7.8-18.9C94.9,125.9,101.7,123.1,108.8,123.1z M130.1,149.9c0-4.2-1.2-8.4-3.6-11.9c-2.3-3.5-5.7-6.3-9.6-7.9
		c-3.9-1.6-8.2-2.1-12.4-1.2c-4.2,0.8-8,2.9-11,5.9s-5,6.8-5.9,11c-0.8,4.2-0.4,8.5,1.2,12.4s4.4,7.3,7.9,9.6s7.7,3.6,11.9,3.6
		c5.7,0,11.1-2.3,15.1-6.3C127.8,161,130.1,155.5,130.1,149.9z"/>
	<path class="st3" d="M108.8,128.4c4.2,0,8.4,1.3,11.9,3.6s6.3,5.7,7.9,9.6c1.6,3.9,2,8.2,1.2,12.4s-2.9,8-5.9,11s-6.8,5-11,5.9
		c-4.2,0.8-8.5,0.4-12.4-1.2c-3.9-1.6-7.3-4.4-9.6-7.9c-2.4-3.5-3.6-7.7-3.6-11.9c0-5.7,2.3-11.1,6.3-15.1
		C97.7,130.6,103.1,128.4,108.8,128.4z"/>
	<path class="st1" d="M115.1,150c0,1.3-0.4,2.5-1.1,3.5s-1.7,1.8-2.8,2.3c-1.2,0.5-2.4,0.6-3.7,0.4c-1.2-0.2-2.4-0.9-3.2-1.7
		c-0.9-0.9-1.5-2-1.7-3.2s-0.1-2.5,0.4-3.7s1.3-2.1,2.3-2.8s2.3-1.1,3.5-1.1c1.7,0,3.3,0.7,4.5,1.9
		C114.4,146.7,115.1,148.3,115.1,150z"/>
</g>
<path class="st4" d="M490.6,166c-5.9,13.1-18.7,22.6-34,23.6c-19.4,1.3-36.4-11.4-41.4-29.4c-3.1-0.2-6.2-0.3-9.3-0.5
	c0.2,4.8,0.6,7.8,0.6,7.8L154.5,167c0,0-0.1-3-0.3-7.3c-2.2,0.1-4.5,0.2-6.7,0.3c-1.8,6.7-5.3,13-10.5,18.3
	c-15.7,15.6-41.1,15.5-56.7-0.2c-3.6-3.7-6.4-7.9-8.4-12.4C27.3,170.5,0,176.9,0,183.8c0,14.9,125.4,27,280,27s280-12.1,280-27
	C560,177,533.8,170.8,490.6,166z"/>
<g class="st0">
	<path class="st5" d="M59.3,91.4l-0.1,66.5h10.3c-2.6-12.8,1-26.7,11-36.6c15.7-15.6,41.1-15.5,56.7,0.2
		c9.9,9.9,13.5,23.8,10.8,36.5l266.8,0.5c-0.5-2.1-0.8-4.2-0.9-6.4c-1.5-22.1,15.3-41.2,37.4-42.7s41.2,15.3,42.7,37.4
		c0.3,4.1-0.1,8-1,11.8h15.7l0.1-66.5L59.3,91.4z"/>
	<path class="st6" d="M36,42.3c0,0,11.2,1.3,13.2,0c4.5-2.9,103.1-42.2,187.6-42c67.8,0.1,128.8,18.3,188.1,58.2
		c0,0,72.3,8.2,100.5,29.5c6.6,3.9,20,19,14.7,53.3c-3.4,21.9-19.6,22.7-41.9,22.2c0,0,8.5-66.4-50.7-61.6
		c-50.3,4.1-40.9,65.6-40.9,65.6L154.5,167c0,0-1-27.3-2.1-33.9c-2.1-13.2-18.5-35-49.2-31.9c-33.7,3.4-45,34.1-43,60.1
		c0,0-35.6,7.6-40.3-21.1l-8.5-2.7c0,0-3.1-59.3,26.7-84.2L31.8,49L36,42.3z"/>
	<path class="st5" d="M52.8,40.4c0,0,2.1,5.7,9.3,5.1C68,45,101.7,32.4,114,27.7c1.8-0.6,3.3-1.7,4.6-3c1.3-1.4,2.2-3,2.7-4.8
		c0.3-0.8,0.3-1.6,0.2-2.3C121.5,17.6,69.2,30,52.8,40.4z"/>
	<path class="st5" d="M341.8,16.6c0,2.4,0.7,4.8,2,6.8s3.1,3.7,5.3,4.7L421,62.7l4.1-4.4c0,0-7.5-5.4-17.3-11.3
		c-9.1-5.4-20.2-11.2-26.9-14.5C368.2,26.2,355.1,20.9,341.8,16.6z"/>
	<g class="st0">
		<path class="st7" d="M102.7,45.7c-0.5,0.4-0.9,0.9-1.1,1.5c-0.3,0.6-0.4,1.2-0.4,1.9c0,0.6,0.1,1.3,0.4,1.9
			c0.3,0.6,0.7,1.1,1.1,1.5c3.6,3.7,20.5,16.4,28.4,17.2S378.8,87.3,393,83.3s22.5-11.2,19-15.3l-6.4-2.2l-113.1,1.9L102.7,45.7z"/>
	</g>
	<g class="st8">
		<path class="st9" d="M15.2,96.4c0,0,13.9,4.2,19.9-6.8S47.7,67,47.7,64.5c0-3.2-2.2-13.3-9.7-11.3C38.1,53.2,17.3,69.6,15.2,96.4z
			"/>
	</g>
	<g class="st8">
		<path class="st9" d="M531.5,109.5c0,0-54-21.8-45.2-29.2C490.9,76.4,535.3,98,531.5,109.5z"/>
	</g>
	<path class="st1" d="M509.3,163.3c0,0,0-0.2,0-0.5c0-0.4,0.1-0.9,0.1-1.6c0-1.4,0.1-3.5,0-6.1c-0.3-7.5-1.4-15-3.4-22.2
		c-1.4-5-3.3-9.9-5.7-14.5c-2.8-5.3-6.5-10.1-10.9-14.1l-1.8-1.6l-1.9-1.4c-1.3-1-2.7-1.9-4.1-2.7c-0.7-0.4-1.5-0.8-2.2-1.2
		c-0.7-0.4-1.5-0.8-2.3-1.1l-2.4-0.9l-1.2-0.5l-1.2-0.4c-1.7-0.5-3.4-1-5.1-1.3l-2.6-0.5c-0.9-0.1-1.8-0.2-2.6-0.4
		c-0.9-0.1-1.8-0.2-2.7-0.3l-2.7-0.1c-1.8-0.2-3.6-0.2-5.4-0.1c-7.1,0-14.2,1.2-20.8,3.8c-6.2,2.4-11.7,6.2-16.3,11
		c-4,4.4-7.4,9.4-9.8,14.9c-2.1,4.7-3.8,9.7-4.9,14.8c-1.7,7.3-2.5,14.8-2.6,22.3c0,2.7,0.1,4.7,0.1,6.1c0,0.7,0.1,1.2,0.1,1.6
		c0,0.4,0.1,0.5,0.1,0.5s0-0.2,0-0.5s0-0.9-0.1-1.6c-0.1-1.4-0.1-3.5,0-6.1c0.2-7.5,1.1-15,2.8-22.3c1.2-5,2.8-9.9,5-14.7
		c2.4-5.4,5.7-10.4,9.8-14.7c4.5-4.8,10-8.5,16.1-10.9c6.6-2.5,13.6-3.8,20.6-3.7c7-0.2,14.1,0.8,20.8,2.8l1.2,0.4l1.2,0.5l2.3,0.9
		c0.8,0.3,1.5,0.7,2.2,1.1s1.5,0.7,2.2,1.1c1.4,0.8,2.7,1.7,4,2.6l1.9,1.4l1.8,1.6c4.4,4,8.1,8.7,10.8,14c2.4,4.6,4.4,9.4,5.8,14.4
		c2,7.2,3.2,14.7,3.5,22.2c0.1,2.7,0.1,4.7,0.1,6.1v1.6C509.3,163.1,509.3,163.3,509.3,163.3z"/>
	<path class="st1" d="M163,166.8c0,0,0-0.2,0.1-0.5s0.1-0.9,0.1-1.6c0.1-1.4,0.2-3.4,0.2-6.1c0-7.4-0.8-14.8-2.4-22.1
		c-1.1-5-2.7-9.9-4.7-14.6c-2.4-5.4-5.6-10.4-9.6-14.8c-4.5-4.8-9.9-8.6-16-11c-6.6-2.5-13.5-3.8-20.6-3.9c-7-0.3-14,0.5-20.8,2.4
		c-0.4,0.1-0.8,0.2-1.2,0.3l-1.2,0.4l-2.4,0.9c-1.5,0.6-3,1.4-4.5,2.1c-1.4,0.8-2.8,1.6-4.1,2.5l-1.9,1.4c-0.3,0.2-0.7,0.5-0.9,0.7
		l-0.9,0.8c-4.5,3.9-8.2,8.5-11,13.7c-2.4,4.5-4.3,9.3-5.7,14.3c-1.9,7.2-3,14.6-3.1,22c-0.1,2.6,0,4.7,0.1,6.1
		c0,0.7,0.1,1.2,0.1,1.6c0,0.4,0.1,0.5,0.1,0.5c0-0.2,0-0.4,0-0.5c0-0.4,0-0.9-0.1-1.6c0-1.4-0.1-3.4,0-6c0.2-7.4,1.3-14.8,3.2-21.9
		c1.4-4.9,3.3-9.7,5.7-14.2c2.8-5.1,6.6-9.7,11-13.6l0.9-0.8c0.3-0.2,0.6-0.5,0.9-0.7l1.9-1.4c1.3-0.9,2.7-1.7,4.1-2.5
		c1.5-0.7,2.9-1.4,4.4-2l2.3-0.9l1.2-0.4c0.4-0.1,0.8-0.2,1.2-0.3c6.7-1.9,13.6-2.7,20.6-2.4c7,0,13.9,1.3,20.3,3.8
		c6,2.4,11.5,6.1,15.9,10.8c4,4.3,7.2,9.2,9.6,14.6c2.1,4.7,3.6,9.5,4.7,14.5c1.6,7.2,2.4,14.6,2.5,22c0,2.6,0,4.7-0.1,6.1
		c0,0.7,0,1.2-0.1,1.6C162.9,166.7,163,166.8,163,166.8z"/>
	<path class="st5" d="M105,45.7c0,0,20.9,18.3,30,18.4c9.1,0,248.5,15.4,259.1,11.1c5.6-2.1,11.1-4.7,16.2-7.8
		c0,0-77.9-56.5-169-54.2C174.6,15,105,45.7,105,45.7z"/>
	<path class="st1" d="M362.1,40.3l15.7,35.5h8l-13-30.4L362.1,40.3z"/>
	<g class="st0">
		<path class="st10" d="M162.4,91.6l28.4,0.1V86c0-0.3-0.1-0.7-0.4-0.9c-0.2-0.2-0.6-0.4-0.9-0.4h-25.8c-0.3,0-0.7,0.1-0.9,0.4
			c-0.2,0.2-0.4,0.6-0.4,0.9L162.4,91.6L162.4,91.6z"/>
	</g>
	<g class="st0">
		<path class="st10" d="M273,91.8l28.4,0.1v-5.6c0-0.3-0.1-0.7-0.4-0.9c-0.2-0.2-0.6-0.4-0.9-0.4h-25.8c-0.3,0-0.7,0.1-0.9,0.4
			c-0.2,0.2-0.4,0.6-0.4,0.9L273,91.8L273,91.8z"/>
	</g>
	<path class="st1" d="M175,22.7l-24.9,42l23.1,1.3l-3-20.2l15.3-25.5L175,22.7z"/>
	<path class="st1" d="M265.4,13.9l3.7,57.6l-8.4-0.4l-3.5-57.8L265.4,13.9z"/>
	<path class="st1" d="M373,84.6l-3.6-3.7l5.8-7.3l4.9,4.7c0.7,0.6,1.2,1.5,1.3,2.5C382,85.3,376.2,87.9,373,84.6z"/>
	<path class="st6" d="M358.5,83.1c-8.8,0.3-15.6-8.7-11.9-16.6c0.4-1,1-1.8,1.8-2.5c0.8-0.7,1.8-1.1,2.8-1.3
		c9.1-1.6,20.9-2.1,24.1,10.8c0.9,3.8-1.2,6.2-4.7,7.6C367.2,82.5,362.7,83,358.5,83.1z"/>
	<path class="st1" d="M90,74.4c0,1.2,0.4,2.4,1.1,3.5s1.7,1.8,2.8,2.3c1.1,0.5,2.4,0.6,3.6,0.3c1.2-0.3,2.3-0.9,3.2-1.7
		c0.9-0.9,1.4-2,1.7-3.2c0.2-1.2,0.1-2.5-0.4-3.6s-1.3-2.1-2.3-2.8c-1-0.7-2.2-1-3.5-1c-1.7,0-3.2,0.7-4.4,1.9
		C90.6,71.3,90,72.7,90,74.4z"/>
	<path class="st1" d="M163.2,152.7h0.6h1.8l6.8,0.2l25,0.5l82.6,1.3c32.3,0.4,61.5,0.8,82.7,0.9c10.6,0,19.1,0.1,25.1,0
		c5.9-0.1,9.2-0.2,9.1-0.4c-0.8,0.1-1.6,0.2-2.4,0.1c-1.6,0-3.9,0-6.8,0c-5.9,0-14.5-0.1-25.1-0.1l-82.6-1l-82.6-1.2l-25.1-0.3h-6.8
		h-1.8H163.2z"/>
	<path class="st1" d="M265.4,167c0.2,0,0.1-21.3-0.2-47.5c-0.3-26.2-0.6-47.5-0.8-47.5c-0.1,0-0.1,21.3,0.3,47.5
		C265,145.7,265.3,167,265.4,167z"/>
	<path class="st3" d="M210.2,29.9c-0.1,0.1,6.4,6.1,14.6,13.4s14.8,13.1,14.9,13c0.1-0.1-6.4-6.1-14.6-13.4
		C217,35.6,210.3,29.8,210.2,29.9z"/>
	<path class="st3" d="M213.4,41.4c0.3,0.4,0.6,0.7,1,1c0.7,0.6,1.6,1.5,2.9,2.6c2.5,2.2,5.9,5.2,9.8,8.4c3.9,3.2,7.5,6,10.1,8.1
		c1.3,1,2.4,1.8,3.1,2.3c0.4,0.3,0.8,0.6,1.2,0.8c-0.3-0.4-0.7-0.7-1.1-1l-3-2.5c-2.6-2-6.1-4.9-10-8.1c-3.9-3.2-7.3-6.2-9.9-8.3
		l-3-2.5C214.2,42,213.8,41.7,213.4,41.4z"/>
	<path class="st3" d="M295.9,31.5c-0.1,0.1,9.4,6.8,21.2,14.9c11.8,8.1,21.5,14.6,21.6,14.5s-9.4-6.8-21.2-14.9
		C305.7,37.8,296,31.3,295.9,31.5z"/>
	<path class="st3" d="M287.1,31c0.4,0.4,0.8,0.7,1.2,1l3.4,2.7l11.4,8.8l11.3,8.9l3.4,2.7c0.4,0.4,0.8,0.7,1.3,0.9
		c-0.4-0.4-0.7-0.8-1.2-1.1c-0.8-0.7-1.9-1.6-3.3-2.8c-2.8-2.4-6.7-5.6-11.1-9c-4.4-3.5-8.5-6.5-11.5-8.7c-1.5-1.1-2.7-1.9-3.6-2.5
		C288,31.6,287.5,31.3,287.1,31z"/>
	<path class="st3" d="M430.1,60.7c0.1,0,0.2,0.1,0.3,0.1l0.8,0.1l3.1,0.4c2.7,0.4,6.7,1,11.5,1.8c12.6,2.2,25.1,5.2,37.4,9
		c7.2,2.2,13.9,4.6,20,7c5.4,2,10.6,4.4,15.7,7.1c3.4,1.8,6.6,4.1,9.4,6.8c0.5,0.5,0.9,0.9,1.3,1.3c0.4,0.4,0.7,0.7,0.9,1l0.6,0.6
		c0.1,0.1,0.1,0.1,0.2,0.2c0,0,0-0.1-0.2-0.2l-0.5-0.7c-0.2-0.3-0.5-0.6-0.9-1s-0.8-0.9-1.3-1.3c-2.8-2.7-5.9-5.1-9.4-6.9
		c-5.1-2.8-10.3-5.2-15.7-7.2c-6.1-2.4-12.8-4.9-20-7.1c-12.3-3.8-24.8-6.8-37.4-8.9c-4.9-0.8-8.8-1.3-11.6-1.6l-3.2-0.3l-0.8-0.1
		C430.3,60.7,430.2,60.7,430.1,60.7z"/>
	<path class="st3" d="M177.8,7h0.4l1.2-0.2l4.7-0.8c4.1-0.7,10-1.6,17.3-2.4c19.1-2.3,38.4-2.7,57.6-1.3c22.5,1.8,42.4,6.4,56.7,10
		c7.2,1.8,12.9,3.4,16.9,4.5l4.6,1.2l1.2,0.3c0.1,0,0.3,0.1,0.4,0.1c-0.1-0.1-0.3-0.1-0.4-0.1l-1.2-0.4l-4.6-1.4
		c-4-1.2-9.7-2.8-16.9-4.7c-14.3-3.6-34.3-8.2-56.8-10.1c-19.2-1.5-38.5-1-57.7,1.4C193.9,4,188,5,183.9,5.7c-2,0.4-3.6,0.7-4.7,0.9
		l-1,0.4C178,7,177.9,7,177.8,7z"/>
	<path class="st3" d="M347.8,65.6c0.4,0,0.9,0,1.3-0.1c0.8-0.1,2-0.2,3.6-0.3c3.9-0.2,7.9,0.2,11.7,1.3c2.1,0.6,4,1.6,5.7,2.9
		c1.4,1.1,2.6,2.4,3.4,4c0.8,1.4,1.3,3,1.5,4.6c0,0,0-0.1,0-0.3c0-0.3,0-0.7-0.1-1c-0.2-1.2-0.6-2.4-1.1-3.5c-0.9-1.6-2-3-3.5-4.2
		c-1.8-1.4-3.8-2.4-5.9-3.1c-3.9-1.1-7.9-1.5-11.9-1.2c-1.2,0.1-2.4,0.2-3.6,0.5C348.6,65.3,348.2,65.4,347.8,65.6z"/>
	<path class="st3" d="M273.4,79.1c0,0.2,14.7,1.2,32.9,2.3c18.2,1.1,33,2,33,1.8c0-0.1-14.7-1.2-32.9-2.3
		C288.2,79.8,273.4,79,273.4,79.1z"/>
	<path class="st3" d="M439.2,91.9c0.1,0,0.2,0,0.3,0l0.7-0.2c0.6-0.1,1.6-0.4,2.8-0.6c3.5-0.6,7-1,10.6-1c5.3-0.1,10.5,0.5,15.7,1.6
		c6.3,1.3,12.3,3.8,17.8,7.3c5.3,3.7,9.9,8.3,13.5,13.6c2.9,4.4,5.3,9.1,6.8,14.2c1.1,3.4,1.8,6.9,2.2,10.4c0.2,1.2,0.2,2.2,0.2,2.9
		l0.1,0.8c0,0.1,0,0.2,0,0.3c0-0.1,0-0.2,0-0.3v-0.8c0-0.7,0-1.7-0.1-2.9c-0.3-3.6-1-7.1-2-10.5c-1.6-5.1-3.8-9.9-6.8-14.3
		c-3.6-5.5-8.2-10.2-13.6-13.9c-5.5-3.5-11.6-6-17.9-7.3c-5.2-1.1-10.5-1.6-15.8-1.5c-3.6,0.1-7.1,0.5-10.6,1.2
		c-1.2,0.2-2.2,0.6-2.8,0.7l-0.7,0.2L439.2,91.9z"/>
</g>
</svg>
