<?xml version="1.0" encoding="utf-8"?>
<!-- Generator: Adobe Illustrator 25.2.1, SVG Export Plug-In . SVG Version: 6.00 Build 0)  -->
<svg version="1.1" id="Capa_1" xmlns="http://www.w3.org/2000/svg" xmlns:xlink="http://www.w3.org/1999/xlink" x="0px" y="0px"
	 viewBox="0 0 560 176.2" style="enable-background:new 0 0 560 176.2;" xml:space="preserve">
<style type="text/css">
	.st0{fill:#FFC1B8;}
	.st1{opacity:0.3;}
	.st2{fill:#252525;}
	.st3{fill:#FAFAFA;}
	.st4{fill:#E0E0E0;}
	.st5{fill:#FF725E;}
	.st6{opacity:0.4;fill:#252525;enable-background:new    ;}
	.st7{fill:#455A64;}
	.st8{fill:#EBEBEB;}
	.st9{opacity:0.4;}
	.st10{opacity:0.4;fill:#FFFFFF;enable-background:new    ;}
	.st11{opacity:0.3;fill:#252525;enable-background:new    ;}
	.st12{fill:#FFFFFF;}
</style>
<path class="st0" d="M486.1,131.2c-8,11.6-21.4,19.2-36.4,19.2c-17.2-0.1-32-10.2-39.2-24.8c-3.8-0.2-7.7-0.4-11.6-0.6
	c0,3.5,0.2,6.4,0.4,7.8c0,0-210.3-8.8-247.2-4.6c0,0,0.3-1,0.8-2.9c-2.6,0.1-5.2,0.3-7.7,0.4c-7.3,14.8-22.5,24.8-39.9,24.6
	c-14.6-0.2-27.4-7.6-35.3-18.8C26.4,136.4,0,142.6,0,149.4c0,14.9,125.4,27.1,280,27.1s280-12.1,280-27
	C560,142.5,532,136,486.1,131.2z"/>
<g class="st1">
	<g>
		<path class="st2" d="M105.2,150.4c-24.3-0.3-43.7-20.6-43.4-45.1c0.3-24.6,20.3-44.3,44.6-43.9c24.3,0.3,43.7,20.6,43.4,45.1
			C149.4,131.1,129.5,150.7,105.2,150.4z"/>
		<path class="st3" d="M136.7,105.4c0.1,6.2-1.6,12.2-5,17.4c-3.3,5.2-8.1,9.3-13.7,11.7s-11.8,3.2-17.8,2c-6-1.1-11.6-4-15.9-8.3
			c-4.4-4.3-7.4-9.8-8.7-15.9c-1.3-6-0.8-12.3,1.5-18.1c2.3-5.7,6.1-10.7,11.2-14.2c5-3.5,11-5.4,17.1-5.5c4.1-0.1,8.1,0.7,11.9,2.2
			s7.2,3.8,10.1,6.6c2.9,2.9,5.2,6.3,6.8,10C135.8,97.3,136.6,101.3,136.7,105.4L136.7,105.4z"/>
		<path class="st4" d="M105.3,74.6c4.1-0.1,8.1,0.7,11.9,2.2s7.2,3.8,10.1,6.6c2.9,2.8,5.2,6.3,6.8,10c1.6,3.8,2.5,7.8,2.5,11.9
			l-61.8,0.9c-0.1-4.1,0.7-8.2,2.2-12s3.7-7.3,6.6-10.2c2.8-2.9,6.2-5.3,9.9-6.9C97.3,75.6,101.3,74.7,105.3,74.6L105.3,74.6z"/>
		<path class="st2" d="M124.6,105.6c0.1,3.8-1,7.5-3,10.6c-2,3.2-4.9,5.6-8.3,7.1s-7.2,1.9-10.9,1.2c-3.7-0.7-7-2.4-9.7-5.1
			c-2.7-2.6-4.5-6-5.3-9.7s-0.5-7.5,0.9-11s3.7-6.5,6.8-8.6c3.1-2.1,6.7-3.3,10.4-3.4c2.5,0,4.9,0.4,7.2,1.3c2.3,0.9,4.4,2.3,6.2,4
			c1.8,1.7,3.2,3.8,4.2,6.1C124,100.6,124.6,103.1,124.6,105.6L124.6,105.6z"/>
	</g>
	<g>
		<path class="st2" d="M449.7,150.4c-24.3-0.2-43.9-20.2-43.7-44.8c0.2-24.6,20-44.4,44.3-44.2s43.9,20.2,43.7,44.8
			C493.8,130.8,474,150.5,449.7,150.4z"/>
		<path class="st3" d="M480.9,105.4c0.1,6.2-1.6,12.2-5,17.4c-3.3,5.2-8.1,9.3-13.7,11.7s-11.8,3.2-17.8,2c-6-1.1-11.6-4-15.9-8.3
			c-4.4-4.3-7.4-9.8-8.7-15.9c-1.3-6-0.8-12.3,1.5-18.1c2.3-5.7,6.1-10.7,11.2-14.2c5-3.5,11-5.4,17.1-5.5c4.1-0.1,8.1,0.7,11.9,2.2
			s7.2,3.8,10.1,6.6c2.9,2.9,5.2,6.3,6.8,10C480,97.3,480.8,101.3,480.9,105.4L480.9,105.4z"/>
		<path class="st4" d="M449.5,74.6c4.1-0.1,8.1,0.7,11.9,2.2s7.2,3.8,10.1,6.6c2.9,2.9,5.2,6.3,6.8,10c1.6,3.8,2.5,7.8,2.5,11.9
			l-61.8,0.9c-0.1-4.1,0.7-8.2,2.2-12s3.7-7.3,6.6-10.2c2.8-2.9,6.2-5.3,9.9-6.9C441.5,75.6,445.5,74.7,449.5,74.6L449.5,74.6z"/>
		<path class="st2" d="M468.8,105.6c0.1,3.8-1,7.5-3,10.6c-2,3.2-4.9,5.6-8.3,7.1s-7.2,1.9-10.9,1.2c-3.7-0.7-7-2.4-9.7-5.1
			c-2.7-2.6-4.5-6-5.3-9.7s-0.5-7.5,0.9-11s3.7-6.5,6.8-8.6c3.1-2.1,6.7-3.3,10.4-3.4c2.5,0,4.9,0.4,7.2,1.3c2.3,0.9,4.4,2.3,6.2,4
			c1.8,1.7,3.2,3.8,4.2,6.1C468.2,100.6,468.8,103.1,468.8,105.6z"/>
	</g>
</g>
<g class="st1">
	<path class="st5" d="M497.2,65.9c-7.4-7.5-17.4-11.7-27.8-11.7H43.1v63h20.1c-1-3.8-1.5-7.8-1.5-12c0.4-24.5,20.4-44.2,44.7-43.8
		c24.3,0.3,43.7,20.6,43.4,45.1c-0.1,3.7-0.6,7.3-1.4,10.7h259.1c-1-3.7-1.5-7.6-1.5-11.6c0.2-24.6,20-44.4,44.3-44.2
		s43.9,20.2,43.7,44.8c0,3.8-0.5,7.5-1.4,11h16.2V94C508.7,83.5,504.5,73.4,497.2,65.9z"/>
	<path class="st2" d="M186.4,8.7c0.1,0,0.2,0,0.2,0h0.7l2.7-0.1l9.9-0.4l14.7-0.6l8.7-0.4c1.5-0.1,3,0,4.6,0h4.7
		c12.8,0,24.4-0.6,32.8-0.9l9.9-0.5l2.7-0.2l0.7-0.1c0.1,0,0.2,0,0.2,0H278l-2.7,0.1L265.4,6c-8.4,0.3-20,0.8-32.8,0.8h-4.7
		c-1.6,0-3.1-0.1-4.6,0l-8.7,0.4L199.9,8L190,8.5l-2.7,0.2l-0.7,0.1L186.4,8.7z"/>
	<path class="st6" d="M497.2,65.9c-7.4-7.5-17.4-11.7-27.8-11.7H43.1v63h20.1c-1-3.8-1.5-7.8-1.5-12c0.4-24.5,20.4-44.2,44.7-43.8
		c24.3,0.3,43.7,20.6,43.4,45.1c-0.1,3.7-0.6,7.3-1.4,10.7h259.1c-1-3.7-1.5-7.6-1.5-11.6c0.2-24.6,20-44.4,44.3-44.2
		s43.9,20.2,43.7,44.8c0,3.8-0.5,7.5-1.4,11h16.2V94C508.7,83.5,504.5,73.4,497.2,65.9z"/>
	<path class="st5" d="M548.5,115.1c0,0-16.5,18.3-46.9,14.6c0,0,12.1-68.2-51.5-71.9c0,0-29.2-2.6-44.2,21.7
		c-4.3,7.1-6.7,15.3-6.8,23.6c-0.2,9.6-0.5,25.7,0.2,29.8c0,0-210.3-8.8-247.2-4.6c0,0,16.8-52.7-29.4-69.7c-7.9-2.9-17-3.2-25.3-2
		c-11.3,1.6-23.4,6.8-31.3,19c-3.4,5.2-7.5,12.8-8.7,18.9c-2,10.5-0.6,20.3,0,25.5L40,118.3L27.5,76l1.8-25l12.9-24.7L72.8,30
		c0,0,56.7-16.3,90-23c33.4-6.8,86-8.1,98.8-5.9c12.8,2.2,17.6,4.6,23.9,7.4s64.6,31,64.6,31l89.1,0.7c0,0,60.9-1.3,99.3,45
		l-5.1,20.8L548.5,115.1z"/>
	<path class="st7" d="M350.2,39.3c0,0-54.9,2.4-69.4,1.8c-14.5-0.6-92.6-9.8-92.6-9.8l-1.1-22.7c0,0,25.9-1.7,43-1.7
		c14.2,0,49-1.3,49-1.3c1.1,0.5,2.3,1,3.5,1.4C302.7,15.7,325.4,27.2,350.2,39.3z"/>
	<path class="st8" d="M525.7,71.8c0,0-8.1,1.3-18.3-3.3c-10.2-4.6-39.1-20.4-39.1-20.4l1.9-4c0,0,5.2,1.1,11.2,3
		c6.5,2.1,12.8,4.7,18.8,7.8c4.8,2.4,9.4,5.1,13.9,8C518.1,65.6,522,68.6,525.7,71.8L525.7,71.8z"/>
	<path class="st2" d="M510,84.9c0,0.1,5.7,0.4,12.7,0.6s12.7,0.3,12.7,0.1c0-0.1-5.7-0.4-12.7-0.6S510,84.8,510,84.9z"/>
	<g class="st9">
		<path class="st10" d="M533.6,105.9l-19.9,9.4c0,0,19.6,3.9,34.8-0.2L533.6,105.9z"/>
	</g>
	<path class="st8" d="M499.3,80.1c0,0,6.4,9.5,7.3,17.1s1.1,17.1,1.1,17.1h-2.9c0,0,2.4-23.1-9.6-34.1L499.3,80.1L499.3,80.1z"/>
	<g class="st1">
		<path class="st11" d="M397.8,62.2l7-6.7l-59.1-2.1l40.9,5.3L397.8,62.2z"/>
	</g>
	<path class="st2" d="M393.2,115.7c0-0.1,0-0.2,0-0.3c0-0.2,0-0.5,0-0.8c0-0.7,0.1-1.7,0.1-3c0.2-3.6,0.6-7.2,1.1-10.8
		c0.8-5.3,2.3-10.6,4.3-15.5c2.6-6.1,6.3-11.6,10.9-16.3c4.6-4.6,10.1-8.4,16.1-11l1-0.5l1-0.4l2-0.8c1.4-0.4,2.7-0.9,4-1.2
		s2.5-0.7,3.8-0.9l2-0.2l1.7-0.2c3.6-0.5,7.1-0.6,10.7-0.4c1.3,0.1,2.3,0.2,2.9,0.2l0.8,0.1h0.3c-0.1,0-0.2,0-0.3-0.1l-0.8-0.1
		c-0.7-0.1-1.7-0.3-2.9-0.3c-3.6-0.3-7.2-0.2-10.8,0.2l-1.8,0.2l-1.8,0.3c-1.2,0.2-2.5,0.5-3.8,0.8s-2.6,0.8-4,1.2l-2,0.8l-1,0.4
		l-1,0.5c-6.1,2.6-11.6,6.4-16.3,11c-4.7,4.7-8.4,10.3-11,16.4c-2.1,5-3.5,10.3-4.2,15.6c-0.5,3.6-0.8,7.3-0.9,10.9
		c-0.1,1.3,0,2.3-0.1,3v0.8C393.2,115.5,393.2,115.6,393.2,115.7L393.2,115.7z"/>
	<g class="st9">
		<path class="st10" d="M383.3,112.4L348,97.1l-173.3,3.4L383.3,112.4z"/>
	</g>
	<path class="st2" d="M350.1,98.1l48.8-37l-12.3-2.4l-50.4,38.7L350.1,98.1z"/>
	<path class="st2" d="M334.6,130.3c0-0.1,0.1-0.2,0.1-0.3c0.1-0.3,0.2-0.6,0.3-1c0.2-0.9,0.5-2.3,0.9-3.9c0.8-3.4,1.9-8.3,3.2-14.2
		l0,0v-0.1c-1.2-4.1-2.6-8.7-4.1-13.7v0.1c0.6-4.2,1.2-8.6,1.8-13.3c0.9-6.5,1.7-12.7,2.2-18.4l0.1-1.1c0-0.4,0-0.7,0-1.1
		c-0.1-0.7-0.2-1.4-0.4-2c-0.4-1.3-0.9-2.5-1.4-3.7c-1-2.1-2.2-4.2-3.4-6.2c-2.3-3.7-4.3-6.5-5.7-8.4c-0.7-1-1.3-1.7-1.7-2.2
		c-0.2-0.2-0.3-0.4-0.4-0.6c-0.1-0.1-0.2-0.2-0.2-0.2c0,0.1,0.1,0.1,0.1,0.2l0.4,0.6L328,43c1.4,2,3.4,4.8,5.6,8.5
		c1.2,2,2.3,4.1,3.3,6.2c0.6,1.2,1,2.4,1.4,3.6c0.4,1.3,0.5,2.7,0.4,4c-0.5,5.7-1.4,11.9-2.2,18.4c-0.6,4.6-1.3,9.1-1.8,13.3v0.1
		l4.2,13.6v-0.1c-1.3,5.9-2.3,10.8-3.1,14.2l-0.8,3.9c-0.1,0.4-0.2,0.8-0.2,1C334.6,130.1,334.6,130.2,334.6,130.3L334.6,130.3z"/>
	<path class="st2" d="M333.3,40L265,6.3l-17.7,0.6c0,0,44.1,10.6,52.4,34.2L333.3,40z"/>
	<path class="st2" d="M133,19.5l6.7,7.6l48.5,4.3l-1.1-22.7C187.1,8.6,140.5,15.7,133,19.5z"/>
	<path class="st7" d="M333.3,119.8l-0.6-0.1l-1.7-0.1l-6.7-0.4l-24.6-1.2l-81.3-3.9l-11.7-0.6c-3.8-0.3-7.5-1.4-10.8-3.3
		c-6.6-3.6-11.6-9.1-15.7-14.6c-3.9-5.2-7.2-11-9.8-17c-2.2-5.3-3.6-10.9-4-16.6c-0.2-2.5-0.1-5,0.1-7.5c0.2-2.2,0.6-4.4,1.2-6.6
		c0.9-3.5,2.3-6.8,4.1-9.8c1.2-1.9,2.5-3.7,4-5.4c0.5-0.6,0.9-1,1.2-1.3l0.4-0.4c0,0-0.2,0.1-0.4,0.4c-0.3,0.3-0.7,0.7-1.2,1.2
		c-1.5,1.7-2.9,3.5-4.1,5.4c-1.8,3.1-3.2,6.4-4.2,9.9c-0.6,2.2-1,4.4-1.2,6.6c-0.3,2.5-0.3,5-0.1,7.5c0.4,5.8,1.8,11.4,4,16.7
		c2.5,6.1,5.8,11.9,9.8,17.2c4.1,5.5,9.2,11,15.8,14.7c3.4,1.9,7.1,3,11,3.3l11.8,0.6l81.3,3.8l24.6,1.1l6.7,0.3l1.7,0.1
		L333.3,119.8z"/>
	<path class="st2" d="M135.7,47.6c0.1-0.8,0.2-1.6,0.5-2.4c0.7-2.1,2.2-3.9,4.2-5c1.4-0.8,3-1.4,4.6-1.6c1.6-0.2,3.3-0.1,4.8,0.4
		c1.9,0.5,3.5,1.6,4.9,3c1.5,1.5,2.3,3.5,2.3,5.6s-0.8,4.1-2.3,5.6c-1.3,1.4-3,2.4-4.9,3c-1.6,0.5-3.2,0.6-4.8,0.4
		c-1.6-0.2-3.2-0.7-4.6-1.6c-1.9-1.1-3.4-2.9-4.2-5C136,49.2,135.8,48.4,135.7,47.6c0,0.2,0,0.4,0,0.7s0,0.5,0.1,0.8
		c0,0.4,0.1,0.7,0.2,1c0.7,2.2,2.2,4.1,4.2,5.3c1.4,0.9,3.1,1.4,4.7,1.7c1.7,0.2,3.4,0.1,5-0.4c1.9-0.5,3.7-1.6,5.1-3.1
		c1.5-1.6,2.4-3.7,2.4-5.9s-0.9-4.3-2.4-5.9c-1.4-1.5-3.1-2.5-5.1-3.1c-1.6-0.5-3.3-0.6-5-0.4c-1.7,0.2-3.3,0.8-4.7,1.7
		c-2,1.2-3.5,3-4.2,5.2c-0.1,0.3-0.2,0.7-0.2,1c-0.1,0.3-0.1,0.5-0.1,0.8C135.7,47.2,135.7,47.4,135.7,47.6L135.7,47.6z"/>
	<path class="st2" d="M72,29.8h0.2h0.7l2.7,0.1l9.8,0.2c8.3,0.2,19.8,0.4,32.5,0.9s24.1,1.1,32.4,1.7c4.1,0.3,7.5,0.6,9.8,0.8
		l2.7,0.3l0.7,0.1c0.1,0,0.2,0,0.2,0c-0.1,0-0.2,0-0.2,0l-0.7-0.1l-2.7-0.3c-2.3-0.3-5.7-0.6-9.8-1c-8.3-0.7-19.8-1.4-32.4-1.8
		C105.2,30.3,93.8,30,85.4,30c-4.2,0-7.5,0-9.8,0h-2.7h-0.7C72.1,29.8,72,29.8,72,29.8L72,29.8z"/>
	<path class="st2" d="M44.9,32.2c0,0.2,0.1,0.3,0.2,0.5l0.5,1.3c0.5,1.1,1.2,2.7,2.1,4.5c2.5,5,5.2,9.8,8.1,14.5
		c3,4.7,6.2,9.2,9.6,13.5c1.3,1.7,2.4,3,3.2,3.9l0.9,1c0.1,0.1,0.2,0.2,0.3,0.3c0,0-0.1-0.1-0.3-0.4l-0.8-1.1
		c-0.7-0.9-1.8-2.3-3.1-4c-2.6-3.4-6-8.1-9.5-13.5s-6.3-10.6-8.2-14.4c-1-1.9-1.8-3.4-2.3-4.5L45,32.6C45.1,32.4,45,32.3,44.9,32.2
		L44.9,32.2z"/>
	<path class="st2" d="M50.7,112.9c0-0.1,0-0.2,0-0.3v-0.9c0-0.7,0-1.8,0-3.3c0.2-4,0.8-8,1.8-11.9c1.5-5.8,3.6-11.3,6.2-16.7
		c1.5-3.2,3.2-6.2,5.1-9.2c2-3.2,4.5-6,7.4-8.3c3-2.2,6.3-4,9.8-5.2c3.3-1.2,6.6-2.1,10-2.7c5.8-1.1,11.7-1.5,17.5-1.1
		c4,0.2,7.9,0.8,11.8,1.7l1.8,0.4l1.3,0.3l0.8,0.2c0.1,0,0.2,0,0.3,0.1c-0.1,0-0.2-0.1-0.3-0.1l-0.8-0.3l-1.3-0.4l-1.8-0.5
		c-3.9-0.9-7.8-1.6-11.8-1.8c-5.9-0.4-11.8,0-17.6,1c-3.4,0.6-6.8,1.5-10.1,2.7c-3.6,1.2-6.9,3-9.9,5.3c-2.9,2.4-5.5,5.2-7.5,8.4
		c-1.9,3-3.6,6.1-5.1,9.2c-2.6,5.4-4.7,11-6.1,16.8c-1,3.9-1.5,7.9-1.6,12c0,1.4,0,2.5,0.1,3.3c0,0.4,0,0.6,0.1,0.8
		C50.7,112.7,50.7,112.8,50.7,112.9L50.7,112.9z"/>
	<path class="st2" d="M27.4,71.4c0.4,0.2,0.8,0.3,1.2,0.4c0.8,0.2,1.9,0.6,3.3,0.9c7.3,1.8,14.7,2.7,22.2,2.8c1.4,0,2.6,0,3.4,0
		c0.4,0,0.8,0,1.2-0.1c-0.4-0.1-0.8-0.1-1.2-0.1l-3.4-0.1c-2.9-0.1-6.8-0.4-11.1-0.9s-8.2-1.3-11-1.9l-3.3-0.7
		C28.3,71.6,27.8,71.5,27.4,71.4L27.4,71.4z"/>
	<path class="st2" d="M364.3,72.5c0,0-0.2,0-0.6-0.1l-1.7-0.2l-6.4-0.5l-23.7-1.9c-20-1.5-47.6-3.6-78.2-5.5
		c-15.3-0.9-29.8-1.7-43.1-2.4c-13.2-0.6-25.2-0.9-35.2-0.3c-7.9,0.4-15.8,1.5-23.5,3.2c-2.7,0.7-4.8,1.2-6.3,1.7L144,67l-0.5,0.2
		c0,0,0.2,0,0.6-0.1l1.6-0.4c1.4-0.4,3.6-0.9,6.3-1.6c7.8-1.7,15.6-2.7,23.5-3.1c10-0.6,22-0.3,35.2,0.4s27.8,1.5,43.1,2.4
		c30.5,1.9,58.2,3.9,78.2,5.4l23.7,1.8l6.4,0.5l1.7,0.1h0.5L364.3,72.5L364.3,72.5z"/>
	<path class="st2" d="M160.6,28.9c0.6,0,1.3,0,1.9,0.1c1.3,0.1,3.1,0.3,5.5,0.5c4.7,0.5,11.6,1.2,20,2.1l29.7,3.3l17.5,2l9.3,1.1
		c3.1,0.4,6.3,0.9,9.5,1.2c6.5,0.7,12.8,1.2,18.9,1.6l9,0.6l2.2,0.1h6.4c11.3,0,21.4-0.2,29.9-0.6c8.5-0.4,15.4-0.8,20.1-1.1
		l5.5-0.4l1.4-0.1l0.5-0.1c0,0-0.2,0-0.5,0l-1.4,0.1l-5.5,0.3c-4.8,0.3-11.6,0.7-20.1,1s-18.6,0.5-29.9,0.5h-6.4l-2.2-0.1l-9-0.6
		c-6.1-0.4-12.4-0.9-18.9-1.6c-3.2-0.3-6.4-0.7-9.5-1.2c-3.1-0.4-6.3-0.8-9.3-1.1l-17.5-2c-11.2-1.2-21.2-2.3-29.7-3.2
		c-8.5-0.9-15.3-1.5-20.1-1.9C163.2,28.9,160.6,28.7,160.6,28.9z"/>
	<path class="st5" d="M302.2,46.1c0,0-7.3-14.3-12.5-16.8c0,0-13.8-1.5-15.9-1s-2.8,3.8-2.8,5.9c0,2.1-0.3,5.9,1.3,7.2
		s0.3,1.2,3.4,2s9.7-0.4,9.7-0.4l-0.2,6.1c0,0,7.3,3.8,12,2.6c1.3-0.3,2.5-1,3.4-2C301.6,48.7,302.1,47.4,302.2,46.1z"/>
	<path class="st2" d="M285.2,49.1c0-0.1,0.1-0.3,0.1-0.4c0-0.3,0-0.7,0.1-1.2c0-1.1,0.1-2.6,0.2-4.5v-0.2h-0.2
		c-1.8,0.3-3.7,0.6-5.5,0.7c-1.1,0.1-2.2,0.1-3.3-0.1c-0.6-0.1-1.2-0.2-1.7-0.4c-0.6-0.2-1.2-0.3-1.5-0.8c-0.2-0.3-0.4-0.5-0.7-0.7
		c-0.2-0.2-0.5-0.4-0.7-0.7c-0.4-0.5-0.6-1.2-0.7-1.8c-0.2-1.4-0.2-2.8-0.2-4.2c-0.1-1.5,0.1-2.9,0.6-4.3c0.2-0.7,0.7-1.3,1.2-1.7
		c0.6-0.4,1.3-0.5,2.1-0.5c2.6,0,5.1,0.2,7.6,0.4c2.4,0.2,4.8,0.4,7,0.6h-0.1c1.3,0.7,2.4,1.7,3.4,2.8c0.9,1,1.8,2.1,2.5,3.2
		c1.5,2.1,2.7,4,3.7,5.6s1.7,2.9,2.2,3.7l0.6,1c0.1,0.1,0.1,0.2,0.2,0.3c0-0.1-0.1-0.3-0.2-0.4l-0.5-1c-0.5-0.9-1.2-2.2-2.1-3.8
		s-2.1-3.5-3.6-5.6c-0.8-1.1-1.6-2.2-2.5-3.2c-1-1.2-2.2-2.2-3.5-2.9h-0.1c-2.2-0.2-4.5-0.5-7-0.7s-5-0.4-7.6-0.4
		c-0.4,0-0.8,0-1.2,0.1s-0.8,0.2-1.1,0.5c-0.6,0.5-1.1,1.2-1.4,2c-0.5,1.4-0.7,2.9-0.6,4.4c-0.1,1.4,0,2.8,0.2,4.3
		c0.1,0.7,0.4,1.4,0.8,2c0.2,0.3,0.5,0.5,0.7,0.7s0.4,0.4,0.6,0.7c2.3,1.6,4.8,1.4,6.9,1.3c1.9-0.1,3.7-0.4,5.5-0.7l-0.2-0.1
		c0,1.9,0,3.4-0.1,4.5c0,0.5,0,0.9,0,1.2C285.2,48.8,285.2,48.9,285.2,49.1z"/>
	<path class="st7" d="M379.2,66.2c1.8,0.2,3.6,0.3,5.4,0.2c1.8,0.1,3.6,0,5.4-0.2c-1.8-0.2-3.6-0.3-5.4-0.2
		C382.8,65.9,381,66,379.2,66.2L379.2,66.2z"/>
	<path class="st7" d="M371.6,71.9c1.8,0.2,3.6,0.3,5.4,0.2c1.8,0.1,3.6,0,5.4-0.2c-1.8-0.2-3.6-0.3-5.4-0.2
		C375.1,71.6,373.3,71.7,371.6,71.9L371.6,71.9z"/>
	<path class="st7" d="M363.9,77.5c1.8,0.2,3.6,0.3,5.4,0.2c1.8,0.1,3.6,0,5.4-0.2c-1.8-0.2-3.6-0.3-5.4-0.2
		C367.5,77.2,365.7,77.3,363.9,77.5L363.9,77.5z"/>
	<path class="st7" d="M356.3,83.2c1.8,0.2,3.6,0.3,5.4,0.2c1.8,0.1,3.6,0,5.4-0.2c-1.8-0.2-3.6-0.3-5.4-0.2
		C359.8,82.9,358.1,83,356.3,83.2L356.3,83.2z"/>
	<path class="st7" d="M348.6,88.9c1.8,0.2,3.6,0.3,5.4,0.2c1.8,0.1,3.6,0,5.4-0.2c-1.8-0.2-3.6-0.3-5.4-0.2
		C352.2,88.6,350.4,88.6,348.6,88.9L348.6,88.9z"/>
	<path class="st7" d="M341,94.6c1.8,0.2,3.6,0.3,5.4,0.2c1.8,0.1,3.6,0,5.4-0.2c-1.8-0.2-3.6-0.3-5.4-0.2
		C344.6,94.2,342.8,94.3,341,94.6L341,94.6z"/>
	<path class="st12" d="M275.6,30.3c2.2,0.2,4.4,0.3,6.6,0.2c2.2,0.1,4.4,0,6.6-0.2c-2.2-0.2-4.4-0.3-6.6-0.2
		C280,30,277.8,30.1,275.6,30.3L275.6,30.3z"/>
	<path class="st12" d="M431.8,53.3c0.5,0,0.9-0.1,1.3-0.3c0.8-0.2,2.1-0.5,3.6-0.7c1.5-0.3,3.4-0.5,5.4-0.7c4.5-0.4,9-0.3,13.4,0.4
		c2,0.3,3.9,0.6,5.4,1s2.8,0.7,3.6,0.9c0.4,0.1,0.9,0.3,1.3,0.3c-0.4-0.2-0.8-0.4-1.3-0.5c-0.8-0.3-2-0.7-3.6-1.1
		c-1.8-0.5-3.6-0.8-5.4-1.1c-4.5-0.7-9-0.8-13.5-0.4c-2.1,0.2-3.9,0.5-5.5,0.8s-2.8,0.6-3.6,0.9C432.6,53,432.2,53.2,431.8,53.3
		L431.8,53.3z"/>
	<path class="st12" d="M174.7,100.5c0,0.1,46.6,2.8,104.1,6.1c57.5,3.2,104.1,5.7,104.1,5.6s-46.6-2.8-104.1-6.1
		C221.3,102.9,174.7,100.4,174.7,100.5z"/>
	<path class="st12" d="M85.1,53c0.5-0.1,1-0.2,1.5-0.4c0.5-0.1,1.1-0.3,1.7-0.5c0.7-0.2,1.4-0.4,2.3-0.6c1.7-0.4,3.8-0.8,6.1-1.1
		c2.5-0.3,5-0.5,7.6-0.5c2.5,0,5.1,0.1,7.6,0.4c2.3,0.3,4.4,0.6,6.1,1c0.9,0.2,1.6,0.4,2.3,0.6c0.7,0.2,1.3,0.3,1.7,0.5
		c0.5,0.2,1,0.3,1.5,0.4c-0.5-0.2-1-0.4-1.4-0.6c-0.5-0.2-1-0.4-1.7-0.6s-1.4-0.4-2.3-0.6c-2-0.5-4.1-0.9-6.1-1.1
		c-2.5-0.3-5.1-0.5-7.6-0.5s-5.1,0.2-7.6,0.6c-2.1,0.3-4.1,0.7-6.1,1.2c-0.9,0.2-1.6,0.5-2.3,0.7c-0.9,0.1-1.4,0.3-1.9,0.5
		C86,52.5,85.5,52.7,85.1,53z"/>
	<path class="st12" d="M149.8,37.7c0,0.1,0.7,0.2,1.7,0.5c2.7,0.9,4.9,2.7,6.4,5.1c0.3,0.5,0.6,1,0.9,1.5c-0.1-0.6-0.3-1.2-0.6-1.7
		c-0.7-1.3-1.6-2.4-2.8-3.3c-1.1-0.9-2.4-1.6-3.8-1.9C151.1,37.7,150.4,37.6,149.8,37.7L149.8,37.7z"/>
	<path class="st12" d="M113.4,29c0.9,0.3,1.8,0.4,2.7,0.5c1.7,0.2,4.1,0.5,6.7,0.6s5,0.1,6.7,0c0.9,0,1.9-0.1,2.8-0.3
		c-0.9-0.1-1.9-0.1-2.8-0.1c-1.7,0-4.1,0-6.7-0.2s-5-0.3-6.7-0.4C115.2,29.1,114.3,29,113.4,29L113.4,29z"/>
	<path class="st12" d="M211.4,37c0,0.1,8.8,1.5,19.7,3.1s19.7,2.8,19.7,2.6c0.1-0.1-8.8-1.5-19.6-3.1C220.2,38,211.4,36.8,211.4,37z
		"/>
	<path class="st12" d="M220.4,17.2c-0.1,0.1,4.1,2.1,9.4,4.4c5.2,2.3,9.5,4,9.5,3.9c0.1-0.1-4.1-2.1-9.4-4.4
		C224.7,18.9,220.4,17.1,220.4,17.2z"/>
	<path class="st12" d="M225.3,14.8c0.4,0.3,0.8,0.5,1.2,0.7c0.8,0.4,1.9,1,3.4,1.8c2.8,1.5,6.8,3.4,11.3,5.4s8.6,3.6,11.6,4.8
		c1.5,0.6,2.7,1,3.6,1.3c0.4,0.2,0.9,0.3,1.3,0.4c-0.4-0.2-0.8-0.4-1.3-0.6l-3.5-1.4c-3-1.2-7.1-2.9-11.5-4.9s-8.5-3.9-11.4-5.3
		l-3.4-1.6C226.2,15.1,225.8,14.9,225.3,14.8L225.3,14.8z"/>
</g>
</svg>
